# Blender v2.78 (sub 0) OBJ File: 'Hub_Door.blend'
# www.blender.org
mtllib Hub_Door.mtl
o Cube
v -0.697890 -1.000000 -2.474639
v -0.697890 -1.000000 2.613147
v -1.000000 -1.000000 2.613147
v -1.000000 -1.000000 -2.474639
v -0.697890 4.396505 -2.474638
v -0.697891 4.396505 2.613148
v -1.000000 4.396505 2.613147
v -1.000000 4.396505 -2.474639
vt 0.0281 0.0001
vt 0.4999 0.0001
vt 0.4999 0.0281
vt 0.0281 0.0281
vt 0.4719 0.5287
vt 0.4719 0.5568
vt 0.0001 0.5568
vt 0.0001 0.5287
vt 0.9999 0.0001
vt 0.9999 0.5005
vt 0.5281 0.5005
vt 0.5281 0.0001
vt 0.5279 0.0281
vt 0.5279 0.5285
vt 0.4999 0.5285
vt 0.0281 0.5285
vt 0.0001 0.5285
vt 0.0001 0.0281
vn 0.0000 -1.0000 0.0000
vn 0.0000 1.0000 -0.0000
vn 1.0000 0.0000 0.0000
vn -0.0000 -0.0000 1.0000
vn -1.0000 -0.0000 -0.0000
vn 0.0000 0.0000 -1.0000
usemtl Material
s off
f 1/1/1 2/2/1 3/3/1 4/4/1
f 5/5/2 8/6/2 7/7/2 6/8/2
f 1/9/3 5/10/3 6/11/3 2/12/3
f 2/13/4 6/14/4 7/15/4 3/3/4
f 3/3/5 7/15/5 8/16/5 4/4/5
f 5/17/6 1/18/6 4/4/6 8/16/6
